<?xml version="1.0" standalone="no"?>
<!DOCTYPE svg PUBLIC "-//W3C//DTD SVG 20010904//EN"
 "http://www.w3.org/TR/2001/REC-SVG-20010904/DTD/svg10.dtd">
<svg version="1.0" xmlns="http://www.w3.org/2000/svg"
 width="300.000000pt" height="309.000000pt" viewBox="0 0 300.000000 309.000000"
 preserveAspectRatio="xMidYMid meet">
<metadata>
Created by potrace 1.10, written by Peter Selinger 2001-2011
</metadata>
<g transform="translate(0.000000,309.000000) scale(0.100000,-0.100000)"
fill="#000000" stroke="none">
<path d="M1315 2939 c-322 -44 -594 -184 -822 -423 -188 -196 -308 -426 -369
-706 -26 -120 -27 -439 -1 -559 64 -294 185 -521 391 -727 271 -271 595 -404
980 -404 158 0 284 19 423 65 474 157 821 551 930 1057 14 66 18 128 18 303
-1 204 -2 227 -27 325 -71 283 -197 502 -401 697 -192 183 -432 308 -688 358
-101 20 -338 27 -434 14z m445 -44 c249 -54 480 -177 662 -353 208 -200 339
-438 399 -725 29 -135 31 -398 6 -532 -112 -586 -545 -1022 -1111 -1120 -116
-20 -327 -19 -447 1 -795 135 -1298 929 -1092 1724 136 527 573 927 1108 1016
104 17 373 11 475 -11z"/>
<path d="M1375 2844 c-411 -62 -732 -266 -949 -602 -85 -131 -158 -320 -187
-482 -20 -110 -17 -355 5 -460 56 -272 173 -489 365 -680 349 -347 850 -468
1308 -315 196 65 346 159 494 306 450 449 517 1146 161 1678 -107 162 -311
339 -491 431 -74 37 -219 87 -306 107 -68 15 -337 26 -400 17z m59 -37 c28
-20 5 -59 -32 -55 -33 4 -42 36 -16 55 22 16 26 16 48 0z m114 -14 c5 -31 -28
-47 -56 -27 -18 12 -20 19 -11 35 15 28 63 22 67 -8z m110 0 c6 -40 -58 -54
-72 -16 -9 23 14 44 43 41 18 -2 27 -10 29 -25z m98 3 c15 -12 17 -18 8 -33
-14 -23 -53 -23 -67 -1 -8 12 -7 21 2 32 17 20 32 20 57 2z m-418 -23 c4 -30
-39 -53 -63 -33 -8 7 -15 18 -15 24 0 40 73 48 78 9z m-109 -7 c9 -11 10 -20
1 -36 -14 -26 -63 -24 -68 3 -8 39 42 63 67 33z m641 -1 c19 -23 4 -45 -30
-45 -32 0 -47 18 -36 45 7 19 50 19 66 0z m-250 -35 c7 0 22 8 32 17 18 16 19
15 35 -6 16 -23 42 -25 86 -6 12 5 17 3 17 -9 0 -22 46 -39 70 -26 25 13 30
13 30 -5 0 -24 45 -40 75 -27 22 10 25 9 25 -8 0 -24 34 -43 66 -37 15 2 24
-1 24 -8 0 -24 38 -48 70 -43 25 4 30 1 30 -17 0 -29 19 -45 52 -45 19 0 28
-5 28 -17 0 -25 30 -53 57 -53 18 0 23 -5 23 -25 0 -27 41 -61 64 -52 9 4 12
0 9 -13 -7 -26 14 -59 43 -66 16 -4 24 -12 21 -23 -6 -26 21 -71 43 -71 17 0
19 -5 14 -25 -7 -29 18 -75 41 -75 10 0 12 -9 8 -33 -4 -28 -1 -37 19 -53 20
-15 24 -26 20 -54 -3 -27 2 -40 17 -54 16 -14 18 -23 10 -37 -12 -23 -2 -66
18 -77 12 -7 12 -13 2 -35 -11 -24 -10 -31 9 -57 12 -16 18 -31 13 -34 -16
-10 -19 -44 -6 -69 8 -16 9 -29 3 -35 -16 -16 -18 -105 -3 -128 12 -18 11 -23
-6 -37 -21 -18 -26 -72 -7 -83 8 -5 7 -10 -4 -18 -27 -20 -40 -54 -28 -75 8
-16 5 -25 -15 -45 -27 -27 -31 -46 -15 -77 8 -15 7 -19 -4 -19 -28 0 -48 -31
-43 -66 5 -28 2 -33 -18 -38 -29 -7 -49 -40 -42 -67 3 -12 0 -19 -9 -19 -24 0
-54 -39 -54 -70 0 -25 -4 -30 -25 -30 -28 0 -61 -41 -51 -65 4 -11 -1 -15 -19
-15 -30 0 -65 -32 -65 -59 0 -14 -5 -18 -20 -14 -26 7 -60 -23 -60 -52 0 -18
-5 -20 -35 -17 -30 4 -37 0 -52 -27 -13 -21 -23 -29 -36 -25 -27 9 -57 -6 -67
-32 -9 -21 -13 -23 -31 -14 -16 9 -26 8 -45 -5 -14 -9 -27 -22 -30 -30 -5 -11
-10 -11 -23 -3 -25 15 -68 2 -76 -23 -5 -15 -10 -18 -18 -10 -17 17 -62 13
-82 -9 -15 -17 -19 -17 -32 -5 -20 20 -49 19 -72 -4 -17 -17 -20 -17 -34 -4
-20 20 -67 20 -82 0 -10 -14 -13 -14 -28 4 -20 23 -60 25 -81 3 -9 -8 -16 -11
-16 -5 0 6 -11 18 -25 27 -21 14 -30 15 -52 5 -22 -10 -27 -9 -41 10 -11 16
-22 20 -50 17 -27 -3 -40 1 -58 19 -25 25 -53 30 -72 11 -9 -9 -12 -8 -12 4 0
22 -46 57 -68 51 -11 -3 -26 7 -41 27 -17 24 -29 31 -47 27 -19 -3 -26 1 -30
20 -7 26 -32 43 -63 43 -13 0 -21 6 -21 17 0 24 -30 53 -54 53 -16 0 -24 9
-31 32 -7 24 -19 36 -41 43 -18 6 -29 15 -26 23 6 20 -26 62 -48 62 -16 0 -20
7 -20 30 0 29 -29 70 -51 70 -6 0 -8 9 -4 20 8 25 -18 70 -40 70 -11 0 -13 8
-9 29 5 23 1 35 -18 54 -19 19 -24 32 -20 55 3 21 -2 36 -17 51 -17 17 -19 26
-11 41 11 21 -1 65 -21 72 -9 3 -9 9 0 26 13 25 5 68 -15 76 -11 4 -11 10 3
34 15 27 16 32 2 53 -14 20 -14 26 -1 52 11 22 12 34 3 53 -9 20 -8 30 5 50
14 20 15 30 5 51 -10 21 -9 29 4 44 11 11 16 31 14 53 -2 23 3 41 15 55 10 11
16 31 15 48 -2 19 4 36 20 52 16 16 22 31 19 52 -3 21 0 30 14 35 25 8 41 41
34 70 -5 19 -3 24 14 24 26 0 54 43 45 70 -5 16 -2 20 19 20 27 0 46 25 46 59
0 14 6 21 19 21 27 0 51 27 51 56 0 21 4 24 19 19 24 -7 61 26 61 54 0 15 6
19 27 18 20 -2 32 6 47 30 12 18 27 30 34 28 21 -7 62 17 68 40 4 17 11 21 30
17 27 -5 64 21 64 46 0 12 3 12 15 2 19 -16 62 -5 75 19 8 16 17 19 44 14 26
-4 38 0 55 18 16 18 24 20 33 11 18 -18 46 -14 69 9 15 15 24 18 32 10 16 -16
53 -14 71 4 14 14 18 14 41 -1 22 -14 29 -15 50 -4 14 7 25 18 25 23 0 6 10 1
23 -11 13 -12 29 -22 37 -22z m348 8 c32 -32 -6 -71 -48 -48 -19 10 -27 40
-13 53 11 11 48 8 61 -5z m-841 -14 c7 -20 -8 -48 -28 -52 -8 -1 -23 4 -33 11
-15 11 -17 17 -7 35 14 26 59 30 68 6z m934 -24 c20 -11 26 -45 8 -55 -16 -11
-56 3 -63 21 -7 17 9 44 26 44 5 0 18 -5 29 -10z m-1111 -20 c-7 -13 -21 -20
-38 -20 -27 1 -27 1 8 20 44 24 43 24 30 0z m78 7 c9 -10 7 -19 -4 -36 -19
-26 -57 -25 -62 2 -7 38 42 63 66 34z m1137 -47 c24 -26 13 -52 -21 -48 -35 4
-53 31 -35 52 18 21 34 20 56 -4z m-1308 -15 c-8 -16 -20 -25 -34 -25 -13 0
-23 2 -23 4 0 3 61 45 67 46 0 0 -4 -11 -10 -25z m67 19 c23 -9 20 -51 -4 -64
-21 -11 -60 2 -60 20 0 10 36 50 44 50 2 0 11 -3 20 -6z m1331 -64 c24 -26 13
-52 -21 -48 -35 4 -53 31 -35 52 18 21 34 20 56 -4z m-1483 -2 c-7 -7 -12 -20
-12 -30 0 -13 -8 -18 -27 -18 l-28 1 35 29 c35 30 54 40 32 18z m68 -3 c27
-32 -23 -82 -55 -55 -21 18 -18 36 7 54 28 20 32 20 48 1z m1498 -57 c7 -7 12
-23 12 -36 0 -19 -4 -23 -26 -20 -31 3 -50 28 -41 52 7 19 38 21 55 4z m-1659
-28 c-6 -16 -17 -30 -25 -30 -22 0 -54 -38 -54 -63 0 -16 -6 -23 -22 -24 -29
-3 -61 -41 -55 -65 3 -11 0 -18 -9 -18 -24 0 -54 -39 -54 -70 0 -20 -5 -30
-15 -30 -19 0 -47 -43 -43 -67 1 -10 -10 -31 -26 -46 -21 -21 -26 -34 -22 -52
4 -17 0 -31 -15 -46 -14 -14 -20 -31 -18 -54 2 -22 -3 -41 -15 -54 -11 -12
-17 -31 -15 -53 2 -18 -3 -46 -11 -61 -10 -20 -11 -35 -4 -55 8 -20 7 -33 -5
-51 -11 -18 -12 -29 -4 -52 8 -21 8 -37 0 -60 -10 -25 -9 -35 5 -59 10 -17 13
-32 7 -35 -14 -9 -11 -61 5 -74 9 -8 12 -25 9 -55 -5 -37 -2 -46 17 -59 19
-13 21 -19 11 -31 -16 -19 -4 -64 20 -76 14 -8 17 -17 13 -40 -5 -22 -1 -34
21 -55 14 -15 24 -34 21 -41 -8 -21 13 -60 39 -72 17 -8 22 -17 18 -31 -7 -28
22 -71 48 -71 14 0 19 -6 18 -18 -5 -34 12 -63 42 -69 22 -4 29 -11 29 -29 0
-26 47 -67 67 -60 8 4 13 -2 13 -16 0 -29 28 -58 57 -58 14 0 23 -6 23 -15 0
-23 37 -55 65 -55 14 0 25 -5 25 -12 0 -24 34 -48 67 -48 22 0 33 -5 33 -15 0
-22 45 -48 70 -40 15 5 26 0 42 -20 18 -23 27 -26 55 -22 25 4 35 2 43 -12 12
-23 54 -35 78 -22 14 7 23 5 35 -10 18 -20 71 -26 82 -9 4 6 18 1 36 -12 30
-22 31 -22 61 -5 28 16 32 16 40 3 11 -20 71 -21 88 -1 11 13 14 13 27 0 20
-21 59 -19 81 3 16 16 22 17 37 5 27 -19 43 -16 70 11 15 15 28 20 37 15 23
-15 48 -10 72 14 17 17 28 21 40 15 20 -11 76 16 76 37 0 12 7 14 26 9 31 -8
71 12 80 38 3 12 12 17 20 14 24 -9 63 12 70 39 4 18 13 25 31 25 35 0 60 16
66 43 4 15 18 26 39 32 24 7 35 18 42 41 7 22 18 33 43 41 l35 11 -49 -50
c-163 -167 -373 -286 -608 -345 -100 -25 -126 -28 -285 -27 -157 0 -186 3
-283 27 -259 65 -443 170 -631 360 -177 180 -297 413 -347 677 -17 87 -17 337
0 430 31 171 119 384 215 520 41 57 202 240 211 240 2 0 -1 -13 -6 -30z m79
-2 c2 -18 -3 -30 -17 -37 -42 -23 -70 19 -35 54 23 23 48 15 52 -17z m1667
-79 c0 -27 -28 -37 -50 -19 -18 15 -20 57 -2 63 20 8 52 -19 52 -44z m-1741
15 c9 -25 -12 -54 -40 -54 -29 0 -40 21 -24 49 13 25 55 28 64 5z m1806 -69
c18 -22 8 -50 -19 -50 -28 0 -47 25 -38 49 8 20 40 21 57 1z m-1882 -27 c2
-19 -3 -30 -18 -38 -29 -15 -50 -6 -50 23 0 51 62 65 68 15z m1943 -59 c29
-29 21 -54 -16 -54 -24 0 -31 5 -33 23 -8 52 14 66 49 31z m-2007 -15 c8 -20
-19 -64 -38 -64 -26 0 -40 28 -28 55 13 29 56 34 66 9z m2057 -74 c12 -7 19
-21 19 -40 0 -25 -4 -30 -23 -30 -27 0 -47 17 -47 40 0 14 18 40 28 40 2 0 12
-5 23 -10z m-2121 -15 c20 -24 -3 -65 -35 -65 -21 0 -25 5 -25 28 0 46 35 68
60 37z m2172 -92 c37 -34 10 -86 -30 -57 -24 17 -29 43 -10 62 15 15 18 15 40
-5z m-2217 -27 c0 -32 -23 -53 -49 -43 -19 7 -21 48 -4 65 7 7 22 11 33 10 15
-2 20 -11 20 -32z m2270 -56 c8 -25 7 -25 -13 -7 -11 11 -18 26 -15 34 7 17
18 7 28 -27z m-2307 -45 c5 -36 -21 -59 -49 -44 -11 5 -19 17 -19 25 0 57 62
74 68 19z m2292 21 c6 -8 10 -25 8 -38 -4 -33 -52 -33 -56 0 -7 47 21 69 48
38z m60 -125 c0 -2 -9 8 -21 23 -14 18 -18 33 -13 48 6 20 9 17 20 -22 8 -25
14 -47 14 -49z m-2382 1 c4 -26 -13 -52 -34 -52 -22 0 -36 37 -24 61 15 28 54
22 58 -9z m2352 14 c18 -23 8 -61 -17 -64 -26 -4 -47 29 -38 58 7 23 37 26 55
6z m44 -91 c5 -30 4 -35 -3 -19 -5 12 -14 25 -19 28 -6 3 -8 15 -5 27 8 28 20
12 27 -36z m-2414 -16 c9 -16 8 -26 -5 -45 -17 -27 -26 -29 -43 -12 -25 25 -8
78 25 78 7 0 17 -9 23 -21z m2398 -23 c4 -35 -9 -50 -36 -42 -24 8 -33 27 -25
56 4 16 12 20 32 18 20 -2 27 -9 29 -32z m31 -76 c1 -24 1 -24 -13 -4 -9 12
-12 31 -9 44 6 22 7 23 14 4 4 -10 8 -30 8 -44z m-2439 -5 c10 -12 10 -21 1
-41 -23 -50 -77 -11 -57 42 7 19 40 18 56 -1z m2410 1 c18 -23 8 -61 -17 -64
-27 -4 -44 25 -32 56 10 25 31 29 49 8z m28 -113 c-1 -52 -3 -63 -5 -33 -3 25
-8 49 -12 53 -7 7 8 57 17 57 1 0 1 -35 0 -77z m-2444 11 c9 -8 16 -22 16 -29
0 -14 -26 -45 -39 -45 -27 0 -41 56 -19 78 16 16 23 15 42 -4z m2420 -10 c11
-29 6 -34 -29 -34 -38 0 -40 2 -25 31 13 23 46 25 54 3z m2 -69 c7 -27 -10
-55 -32 -55 -23 0 -40 46 -24 65 20 24 49 18 56 -10z m-2406 -35 c18 -33 3
-62 -28 -58 -28 3 -40 32 -28 64 8 21 44 17 56 -6z m2423 -43 c-6 -47 -6 -47
-19 -21 -12 22 -12 28 1 41 8 8 15 19 15 25 0 6 2 9 4 7 2 -2 2 -25 -1 -52z
m-33 -27 c20 -38 -19 -77 -48 -48 -13 13 -16 50 -5 61 13 14 43 6 53 -13z
m-2374 -36 c16 -26 1 -64 -26 -64 -13 0 -24 10 -30 26 -13 32 -13 30 6 49 19
19 33 16 50 -11z m2386 -56 c-8 -32 -9 -32 -20 -11 -10 19 -9 26 5 41 22 22
27 14 15 -30z m-34 -32 c5 -42 -38 -64 -56 -28 -15 27 4 64 30 60 17 -2 24
-11 26 -32z m-2330 -8 c17 -17 15 -53 -3 -68 -13 -10 -19 -10 -35 5 -11 10
-20 26 -20 35 0 18 19 40 35 40 6 0 16 -5 23 -12z m2331 -84 l-12 -29 -7 25
c-5 17 -2 29 9 38 21 17 25 3 10 -34z m-31 -12 c7 -49 -52 -74 -64 -27 -8 31
12 57 40 53 13 -2 22 -12 24 -26z m-2264 -11 c21 -23 18 -49 -6 -64 -34 -22
-66 41 -36 71 16 16 22 15 42 -7z m2255 -83 c-13 -32 -13 -32 -19 -8 -4 17 -1
29 9 37 23 16 26 8 10 -29z m-29 -18 c0 -24 -28 -52 -49 -48 -22 4 -26 52 -6
72 20 20 55 5 55 -24z m-2179 1 c21 -16 22 -22 11 -45 -14 -31 -32 -33 -57 -6
-15 17 -16 24 -7 45 14 30 22 31 53 6z m2114 -105 c0 -39 -28 -57 -52 -34 -14
14 -15 22 -5 43 17 38 57 31 57 -9z m-2055 10 c29 -36 -10 -85 -45 -56 -15 13
-20 51 -8 63 11 12 40 8 53 -7z m1994 -89 c15 -24 -4 -52 -35 -52 -31 0 -40
42 -13 62 21 16 34 13 48 -10z m56 16 c0 -5 -9 -19 -20 -33 l-20 -25 0 33 c0
25 4 32 20 32 11 0 20 -3 20 -7z m-1980 -28 c19 -23 8 -50 -22 -53 -30 -4 -52
25 -42 52 8 20 48 21 64 1z m1910 -75 c-41 -52 -47 -55 -42 -19 3 19 10 29 22
29 10 0 23 7 30 15 28 34 19 12 -10 -25z m-60 5 c10 -12 9 -20 -4 -40 -18 -28
-51 -33 -60 -9 -10 25 15 59 45 63 4 1 12 -6 19 -14z m-1782 -7 c17 -17 15
-55 -4 -62 -18 -7 -50 8 -57 26 -12 35 34 63 61 36z m77 -74 c9 -9 15 -26 13
-38 -4 -28 -47 -35 -65 -10 -17 23 -16 29 3 48 20 20 29 20 49 0z m1633 -15
c4 -21 -24 -49 -48 -49 -23 0 -33 26 -19 51 13 25 62 23 67 -2z m-1538 -70
c17 -30 5 -51 -26 -47 -31 3 -50 28 -41 52 9 23 54 20 67 -5z m1434 15 c9 -3
16 -14 16 -24 0 -23 -36 -54 -55 -47 -18 7 -20 48 -3 65 14 14 20 14 42 6z
m-1349 -70 c22 -22 15 -48 -13 -52 -28 -4 -52 14 -52 38 0 31 40 39 65 14z
m1272 -9 c7 -20 -24 -55 -49 -55 -24 0 -33 23 -18 49 13 25 58 28 67 6z
m-1169 -64 c5 -31 -11 -45 -41 -37 -50 12 -44 69 7 64 24 -2 32 -8 34 -27z
m1056 23 c38 -14 7 -68 -36 -62 -28 4 -35 30 -13 52 18 18 25 19 49 10z m-959
-54 c15 -16 16 -22 5 -35 -16 -20 -59 -16 -73 7 -8 12 -7 21 2 32 18 22 44 20
66 -4z m872 -6 c9 -23 -30 -58 -56 -49 -23 7 -28 34 -9 53 17 17 58 15 65 -4z
m-766 -30 c17 -21 0 -49 -31 -49 -27 0 -46 25 -37 49 8 21 51 21 68 0z m653 0
c12 -12 13 -20 6 -35 -13 -23 -52 -25 -70 -4 -10 13 -10 19 5 35 22 24 38 25
59 4z m-550 -25 c29 -42 -16 -72 -56 -39 -22 18 -23 18 -4 39 24 27 41 27 60
0z m440 5 c20 -8 21 -38 1 -54 -20 -17 -65 -4 -65 18 0 34 29 50 64 36z m-324
-23 c20 -39 -47 -72 -69 -34 -13 25 5 53 34 53 14 0 29 -8 35 -19z m216 5 c26
-20 7 -51 -32 -51 -35 0 -46 32 -18 52 22 16 26 16 50 -1z m-107 -10 c24 -29
-26 -69 -56 -44 -14 11 -17 40 -6 51 11 12 50 8 62 -7z"/>
<path d="M1335 2685 c-354 -64 -646 -282 -813 -605 -97 -186 -127 -317 -126
-540 1 -144 4 -177 27 -263 116 -436 469 -770 900 -852 113 -21 319 -19 433 4
418 86 769 435 864 858 133 588 -188 1166 -753 1359 -150 51 -376 68 -532 39z
m371 -20 c318 -56 603 -254 772 -538 62 -104 71 -124 52 -112 -13 8 -13 8 5
-40 8 -22 14 -56 14 -75 l0 -35 -14 36 c-7 20 -20 50 -29 67 -15 28 -15 32 0
47 13 12 14 19 5 28 -6 6 -11 7 -11 1 0 -5 -4 -15 -8 -22 -6 -9 -21 0 -55 33
-26 25 -51 45 -56 45 -10 0 -3 -93 11 -138 5 -17 31 -56 57 -85 42 -46 71 -87
71 -100 0 -2 -20 15 -44 39 -48 49 -82 59 -70 22 4 -13 6 -39 6 -58 -3 -51 12
-94 60 -174 39 -64 43 -76 42 -133 0 -35 -3 -65 -6 -69 -14 -13 -51 21 -70 62
-11 25 -25 47 -32 50 -8 3 -12 37 -13 112 -1 66 -5 108 -12 110 -8 3 -8 9 0
24 13 24 3 93 -17 109 -17 14 -18 5 -3 -23 9 -16 8 -19 -3 -16 -7 3 -13 20
-14 39 0 19 -10 56 -22 83 -31 68 -29 136 4 175 28 33 25 51 -9 51 -22 1 -22
1 -2 16 14 11 34 14 65 11 l45 -5 -33 29 c-37 33 -51 35 -93 13 -29 -15 -69
-80 -69 -114 0 -8 9 3 19 26 22 49 65 84 100 83 24 -1 23 -2 -8 -12 -20 -6
-45 -27 -63 -51 -27 -36 -29 -47 -25 -92 5 -46 3 -51 -13 -47 -9 3 -27 18 -39
34 -44 59 -111 58 -111 -2 0 -33 17 -44 55 -35 19 5 25 13 25 34 l0 27 25 -30
c37 -45 29 -60 -28 -56 -43 2 -51 -1 -82 -32 -32 -32 -54 -81 -42 -93 3 -3 23
6 44 20 72 49 114 30 177 -78 22 -37 46 -71 55 -76 13 -8 13 -11 3 -18 -10 -7
-11 -19 -3 -53 6 -24 11 -66 11 -94 0 -47 -3 -52 -37 -74 -28 -18 -45 -22 -80
-18 -23 2 -43 1 -43 -3 0 -10 38 -43 64 -55 20 -10 19 -12 -29 -60 l-51 -50 3
109 c2 91 7 120 30 175 34 86 37 176 6 244 -12 26 -26 47 -31 47 -5 0 -22 -32
-37 -70 l-29 -71 -22 28 c-13 15 -24 33 -25 38 -3 23 -17 -55 -18 -105 -1 -44
6 -70 34 -129 37 -77 45 -117 21 -108 -16 6 -41 -11 -49 -34 -9 -27 21 -62 48
-55 22 6 22 6 19 -115 -2 -67 -5 -124 -8 -126 -2 -3 -7 17 -11 44 -13 110 -26
151 -59 189 -28 33 -32 43 -24 65 5 16 5 36 -2 53 -12 32 -30 26 -30 -10 0
-36 -25 -79 -62 -108 -30 -22 -38 -24 -80 -16 -69 13 -105 35 -134 81 l-26 41
26 27 c14 15 26 32 26 39 0 18 29 14 57 -8 20 -15 34 -18 64 -14 35 6 39 4 39
-15 0 -12 -11 -33 -25 -46 -28 -29 -89 -34 -121 -10 -28 21 -40 18 -19 -5 9
-10 32 -24 51 -30 62 -21 139 36 132 97 -3 26 -6 28 -48 29 -62 1 -64 2 -50
19 11 13 6 15 -36 13 -43 -3 -49 0 -49 16 0 15 13 23 58 35 69 19 121 58 135
103 9 27 9 29 -1 14 -27 -41 -61 -77 -86 -90 -37 -19 -91 -30 -91 -18 0 6 15
14 33 17 63 14 127 84 127 140 0 27 -18 16 -25 -16 -8 -37 -63 -94 -99 -103
-22 -5 -33 0 -60 29 -21 22 -43 35 -58 35 -14 0 -31 7 -38 15 -7 8 -19 15 -26
15 -10 0 -14 13 -14 39 0 22 -4 51 -9 64 -11 30 -69 97 -83 97 -5 0 6 -19 26
-41 35 -41 68 -140 52 -156 -10 -11 -25 17 -32 60 -15 85 -132 130 -189 72
-43 -42 -28 -85 31 -85 32 0 60 -22 50 -39 -4 -6 -19 -6 -42 0 -19 6 -45 8
-57 6 -15 -3 -9 -6 21 -12 24 -4 59 -18 78 -31 19 -13 34 -19 34 -13 0 5 -7
12 -15 15 -8 4 -15 10 -15 15 0 15 22 10 43 -8 19 -17 20 -17 8 5 -6 12 -16
22 -21 22 -6 0 -10 6 -10 13 0 22 -33 45 -69 49 -44 4 -49 21 -16 54 22 22 32
25 63 21 20 -4 45 -16 56 -28 l21 -22 -25 17 c-32 21 -84 21 -101 -1 -11 -15
-11 -16 1 -5 21 18 60 15 98 -8 19 -12 30 -15 26 -9 -4 8 -3 9 5 5 6 -4 9 -11
6 -16 -3 -4 2 -23 10 -43 13 -33 13 -35 -10 -57 -14 -13 -25 -29 -25 -35 0 -6
-12 -20 -27 -31 -27 -20 -29 -20 -68 -3 -49 23 -104 24 -152 4 -50 -21 -37
-27 28 -13 45 9 64 8 110 -5 52 -16 56 -18 56 -48 0 -18 7 -37 15 -43 31 -23
24 -58 -19 -103 -47 -48 -71 -121 -54 -166 14 -35 22 -35 15 1 -9 43 12 103
49 148 33 37 37 39 91 38 31 0 59 -4 63 -7 3 -4 20 -7 37 -7 26 0 34 -7 50
-41 25 -54 81 -90 143 -93 61 -3 79 -12 62 -32 -23 -28 -101 -67 -131 -66 -29
1 -30 0 -15 -16 16 -15 14 -17 -26 -29 -56 -17 -89 -16 -113 2 -27 20 -41 18
-47 -6 -5 -19 -11 -21 -47 -15 -51 8 -115 40 -123 61 -8 19 -27 20 -27 0 0
-23 -13 -18 -51 21 -29 30 -34 42 -34 85 0 27 -1 49 -3 49 -2 0 -10 -17 -19
-37 l-15 -38 -25 30 c-21 24 -24 36 -21 77 6 57 -9 60 -28 5 -7 -20 -22 -47
-33 -59 -41 -43 -61 -101 -61 -173 0 -38 -3 -65 -7 -61 -4 3 -8 14 -8 24 -1 9
-10 52 -19 94 -19 90 -20 101 -6 93 6 -4 22 1 35 9 46 30 23 94 -30 84 -21 -5
-25 -2 -25 20 0 13 16 61 36 105 34 75 36 84 32 161 -5 91 -29 149 -75 186
-22 17 -37 21 -78 17 -27 -2 -60 -8 -72 -12 -19 -6 -23 -4 -23 12 0 28 9 34
32 22 29 -16 68 13 68 51 l0 29 48 -14 c61 -19 129 -19 182 0 23 8 56 15 73
15 l30 0 -24 26 c-70 75 -166 88 -271 38 -60 -29 -73 -44 -37 -44 11 0 18 4
15 9 -7 11 72 41 124 48 30 4 53 -1 96 -22 64 -32 62 -36 -34 -56 -49 -10 -74
-11 -120 -1 -32 7 -75 12 -95 12 l-38 0 40 58 c21 31 69 86 105 122 55 54 66
70 66 98 0 53 27 103 92 169 34 34 60 65 57 67 -2 3 -31 -18 -63 -47 -64 -56
-106 -129 -106 -186 0 -27 -10 -43 -52 -85 l-53 -52 3 42 c3 37 6 40 27 36 32
-6 61 37 45 67 -13 26 -65 29 -78 4 -9 -14 -11 -14 -21 5 -17 32 -25 27 -43
-25 -9 -27 -23 -66 -32 -88 -8 -22 -15 -67 -16 -100 -1 -52 -2 -58 -14 -42
-18 23 -63 22 -76 -3 -16 -30 5 -63 36 -57 28 5 29 0 9 -27 -8 -11 -15 -30
-15 -42 0 -12 -7 -27 -15 -34 -13 -11 -15 -6 -15 38 0 63 -13 94 -50 115 -44
26 -103 22 -141 -10 l-33 -28 28 50 c140 244 347 420 601 511 54 19 132 41
174 48 103 19 270 19 377 1z m-766 -407 c0 -59 -10 -85 -65 -168 -24 -36 -47
-78 -50 -93 -4 -15 -12 -30 -17 -33 -21 -14 -18 8 12 68 20 39 34 85 37 120 3
32 8 56 12 54 3 -2 7 10 8 26 1 17 10 51 19 75 17 44 18 44 30 21 7 -12 13
-44 14 -70z m74 83 c11 -18 -6 -41 -30 -41 -17 0 -24 6 -24 18 0 10 3 22 7 25
9 10 41 8 47 -2z m1306 -176 c0 -3 -8 -17 -17 -31 -9 -14 -20 -42 -24 -62 -7
-36 -7 -36 -8 12 -1 33 4 55 16 68 15 17 33 24 33 13z m-1510 -84 c0 -22 -29
-36 -43 -22 -15 15 0 41 23 41 13 0 20 -7 20 -19z m1340 4 c15 -18 5 -35 -21
-35 -12 0 -19 7 -19 18 0 33 20 42 40 17z m-1454 -10 c17 -13 15 -13 -20 -4
-22 6 -56 8 -75 5 -25 -4 -31 -3 -21 4 23 15 94 12 116 -5z m-64 -21 c-27 -19
-28 -34 -3 -34 11 0 32 -10 47 -23 23 -20 28 -34 36 -113 14 -133 14 -139 1
-137 -7 2 -13 -2 -13 -7 0 -15 26 -12 40 5 7 8 9 22 6 32 -4 9 -11 59 -16 111
-9 100 -31 142 -72 142 -11 0 -16 5 -13 10 9 15 52 12 69 -5 8 -8 18 -40 21
-70 8 -57 18 -67 41 -37 13 16 15 16 32 -6 17 -22 18 -22 51 -6 37 19 54 13
79 -24 14 -21 13 -21 -35 -16 -64 8 -92 -15 -129 -103 -15 -38 -34 -75 -41
-83 -13 -13 -16 -13 -29 5 -9 12 -13 30 -9 45 4 14 9 41 11 60 5 33 4 34 -11
15 -23 -29 -29 -63 -19 -103 11 -43 36 -62 62 -46 9 6 31 43 47 82 17 39 39
80 49 91 23 25 65 27 107 5 l31 -16 -7 34 c-4 18 -14 41 -23 51 -18 20 -3 23
31 6 32 -17 57 -51 57 -79 0 -21 -4 -18 -19 16 -10 23 -24 45 -30 49 -7 4 -3
-10 8 -31 26 -49 26 -53 -2 -107 -13 -24 -27 -54 -30 -67 -6 -23 -6 -22 -33 9
-23 28 -90 71 -110 71 -12 0 5 -129 22 -162 9 -18 34 -54 55 -80 49 -58 54
-72 68 -182 7 -49 18 -105 26 -123 16 -39 16 -39 -33 -14 -44 23 -67 46 -82
86 -11 28 -13 28 -20 10 -39 -93 29 -214 157 -279 26 -13 55 -32 64 -42 16
-19 34 -84 23 -84 -12 0 -124 92 -173 142 -56 58 -94 115 -116 179 -13 36 -13
44 0 62 8 12 15 29 15 39 0 14 8 18 38 18 25 0 46 7 60 20 28 26 30 54 3 45
-23 -7 -80 15 -101 39 -8 10 -24 22 -37 27 -19 7 -23 16 -24 51 -2 52 -2 49 6
69 7 18 -18 49 -40 49 -7 0 -20 -7 -28 -15 -14 -13 -16 -10 -22 23 -3 21 -10
44 -16 52 -11 17 -30 -4 -90 -101 -27 -43 -39 -55 -43 -43 -15 39 -1 73 70
174 43 62 58 112 51 181 -7 82 -15 88 -43 32 -14 -26 -37 -68 -51 -93 -26 -43
-27 -43 -34 -19 -7 30 -29 72 -39 79 -5 3 3 33 17 66 23 58 27 62 66 71 23 6
53 11 67 12 l24 1 -22 -16z m1874 -130 c13 -27 30 -88 38 -135 l14 -84 2 125
2 125 19 -60 c19 -62 43 -175 37 -180 -2 -2 -18 -5 -37 -7 -37 -3 -42 5 -55
83 -4 22 -24 56 -52 89 -55 65 -69 92 -78 150 l-6 45 47 -50 c25 -27 57 -73
69 -101z m-1610 101 c7 -18 -13 -45 -33 -45 -17 0 -27 24 -19 45 7 20 45 19
52 0z m1359 -11 c22 -9 65 -97 65 -134 0 -41 18 -73 36 -66 12 5 15 -1 12 -22
-6 -51 -38 -34 -85 43 -50 84 -84 115 -124 115 -34 0 -38 14 -9 30 22 12 60 5
60 -11 0 -5 5 -9 10 -9 6 0 10 14 10 30 0 33 1 33 25 24z m-133 -36 c-7 -7
-12 -19 -12 -28 0 -8 -9 -21 -20 -28 -16 -10 -20 -10 -20 1 0 15 44 67 57 67
4 0 2 -5 -5 -12z m-1497 -123 c-3 -25 -26 -74 -56 -121 l-51 -79 7 65 c4 44
16 82 37 120 17 30 38 69 47 85 l16 30 3 -29 c2 -17 1 -49 -3 -71z m-172 -38
c-19 -93 -21 -66 33 -302 7 -33 14 -91 14 -130 1 -38 7 -88 15 -110 8 -22 15
-41 15 -42 0 -2 -17 -3 -39 -3 l-39 0 -18 93 c-29 140 -26 361 5 490 13 53 26
96 28 93 2 -2 -4 -42 -14 -89z m55 -102 c0 -66 2 -141 7 -167 4 -28 3 -53 -4
-65 -9 -15 -10 -12 -11 19 0 20 -9 74 -20 120 -23 96 -25 146 -8 219 l12 52
13 -29 c8 -18 12 -73 11 -149z m1677 90 c18 -61 12 -116 -26 -215 -16 -43 -20
-75 -19 -174 1 -84 -3 -131 -12 -154 -13 -29 -14 -19 -10 106 l4 139 -36 80
c-29 66 -36 92 -36 144 l0 64 20 -25 c14 -17 20 -41 20 -77 0 -57 19 -143 32
-143 4 0 8 12 8 26 0 14 -4 23 -10 19 -11 -7 -16 42 -12 110 3 42 42 155 54
155 4 0 15 -25 23 -55z m300 -23 c53 -69 69 -134 61 -262 -10 -170 -14 -187
-46 -167 -28 17 -55 -2 -55 -39 0 -20 6 -30 19 -32 18 -4 18 -3 3 12 -9 9 -14
23 -10 32 8 21 38 13 38 -11 0 -11 4 -23 9 -26 9 -7 -85 -141 -125 -178 -35
-32 -46 -25 -14 9 16 17 26 30 22 30 -3 0 1 19 9 43 9 24 14 66 12 97 -3 72 6
85 61 85 43 0 45 2 54 35 5 19 7 62 5 96 -3 50 -11 71 -48 129 -36 58 -44 81
-49 136 -8 79 0 80 54 11z m-1434 -19 c2 -85 -2 -107 -33 -178 -30 -68 -31
-71 -24 -184 4 -68 15 -137 26 -170 19 -56 18 -73 -1 -54 -12 12 -49 184 -49
233 -1 43 -28 100 -80 165 -39 49 -67 129 -59 168 3 13 12 10 47 -20 55 -45
80 -95 91 -180 l8 -68 2 60 c0 33 -4 76 -9 95 -9 31 -6 43 25 108 20 39 40 72
46 72 5 0 9 -21 10 -47z m549 -18 c7 -8 23 -15 37 -15 13 0 35 -12 50 -26 20
-20 24 -31 18 -52 -3 -15 -7 -44 -8 -66 -4 -62 -72 -100 -110 -61 -12 11 -21
12 -45 3 -38 -15 -62 2 -62 42 0 16 -7 30 -15 34 -24 9 -18 52 10 74 14 11 25
24 25 29 0 5 7 19 16 31 18 26 65 30 84 7z m774 -62 c3 -21 6 -64 6 -95 0 -51
-2 -58 -19 -58 -18 0 -19 6 -14 53 2 28 0 71 -5 95 -9 37 -8 42 8 42 12 0 19
-11 24 -37z m244 -17 c-4 -28 -48 -36 -48 -9 0 11 5 24 11 30 17 17 40 4 37
-21z m-1958 -20 c0 -53 -29 -122 -71 -170 -22 -25 -44 -59 -49 -76 -10 -34 2
-126 20 -160 6 -12 9 -24 7 -27 -11 -10 -32 13 -35 37 -20 194 -12 243 59 358
28 45 55 80 60 76 5 -3 9 -20 9 -38z m85 -36 c0 -8 -10 -16 -22 -18 -22 -3
-32 16 -16 32 12 11 38 2 38 -14z m1885 -88 c0 -88 -2 -103 -15 -98 -8 3 -29
-7 -47 -22 -27 -23 -31 -24 -24 -7 12 32 26 126 26 180 0 49 1 50 30 51 l30 1
0 -105z m-1926 -3 c6 -44 4 -58 -7 -62 -8 -3 -23 -25 -35 -50 -11 -24 -34 -56
-51 -70 -27 -22 -28 -27 -15 -38 12 -10 22 -10 49 0 31 11 35 10 59 -14 14
-14 30 -25 36 -25 5 0 10 -7 10 -15 0 -9 7 -29 15 -45 16 -31 9 -40 -13 -18
-10 10 -15 10 -22 -1 -14 -24 0 -84 38 -165 3 -6 -23 14 -56 43 -67 59 -79 79
-62 111 18 33 -13 74 -49 67 -26 -6 -28 -3 -39 44 -21 88 -16 113 28 164 47
55 80 115 80 147 0 44 27 -13 34 -73z m36 29 c0 -13 3 -33 6 -45 5 -17 2 -23
-9 -23 -11 0 -16 13 -19 45 -2 31 1 45 9 45 7 0 13 -10 13 -22z m1630 -58 c0
-25 17 -27 22 -2 3 12 10 5 26 -25 12 -23 32 -49 44 -57 17 -12 18 -16 6 -16
-8 0 -21 7 -28 15 -10 13 -15 10 -34 -18 -12 -17 -29 -33 -38 -35 -23 -4 -48
47 -49 100 0 42 0 42 -16 21 -16 -24 -48 -29 -73 -13 -12 8 -10 10 10 10 14 0
39 9 55 19 41 27 75 27 75 1z m-270 -64 c-7 -9 -18 -16 -25 -16 -21 0 -26 28
-8 45 14 15 17 15 31 1 13 -12 13 -18 2 -30z m-1283 4 c19 -17 48 -34 65 -37
21 -4 26 -8 16 -14 -21 -14 -60 -10 -80 8 -17 15 -18 14 -18 -23 0 -41 -22
-84 -44 -84 -15 0 -50 37 -59 62 -6 16 -9 15 -31 -7 -31 -31 -57 -34 -29 -2
11 12 30 41 42 65 34 68 84 79 138 32z m241 -11 c-4 -29 -33 -48 -49 -32 -18
18 -1 53 27 53 20 0 25 -4 22 -21z m1248 -29 c10 -36 8 -44 -27 -109 -21 -39
-61 -105 -89 -147 -57 -83 -63 -114 -8 -37 50 72 94 142 119 196 22 46 39 60
39 34 0 -17 -165 -284 -196 -318 -13 -14 -24 -30 -24 -35 0 -9 -37 -32 -85
-53 -5 -2 2 10 17 27 14 17 32 48 38 68 31 94 -80 196 -184 170 -29 -7 -35
-26 -9 -26 24 0 101 -47 113 -70 23 -44 11 -85 -47 -156 -39 -49 -42 -80 -10
-95 20 -9 35 -5 93 24 91 45 123 52 168 33 36 -15 76 -67 76 -98 0 -10 5 -18
10 -18 6 0 10 19 10 43 0 52 -28 101 -76 129 l-35 21 48 34 c79 58 228 126
258 119 35 -9 31 -21 -15 -55 -29 -21 -57 -31 -103 -36 -64 -8 -123 -32 -146
-59 -18 -22 -11 -20 41 9 25 14 67 28 94 31 79 9 91 13 123 40 40 34 39 24
-12 -63 -171 -294 -458 -498 -777 -554 -91 -15 -290 -13 -381 5 -301 59 -563
233 -726 483 -47 71 -133 238 -133 257 0 15 23 3 59 -29 21 -19 41 -35 45 -35
4 0 31 -25 61 -55 29 -30 59 -55 67 -55 18 1 -158 167 -202 190 -39 21 -21 26
29 9 20 -7 31 -18 31 -30 0 -10 10 -24 23 -30 21 -11 21 -11 6 7 -18 22 -15
50 7 58 27 10 36 -4 29 -44 -6 -36 -3 -43 35 -84 23 -25 61 -58 85 -72 23 -15
48 -37 55 -48 12 -19 12 -20 -11 -5 -52 34 -76 43 -122 47 -80 6 -82 -1 -18
-62 62 -60 106 -80 194 -91 l56 -7 -6 -46 -6 -46 39 30 c21 17 48 34 58 38 10
3 16 9 13 12 -3 4 -26 -5 -51 -20 -43 -25 -44 -25 -39 -5 4 12 14 24 25 26 35
10 17 19 -59 32 -116 19 -140 29 -194 77 -49 43 -49 44 -22 44 29 0 144 -52
198 -89 47 -33 63 -24 17 9 -23 16 -55 53 -72 82 -33 59 -66 156 -55 166 15
15 83 -79 110 -153 37 -102 72 -130 189 -150 22 -4 37 -2 35 3 -6 15 -180 155
-185 149 -6 -6 61 -69 113 -107 45 -32 28 -37 -36 -10 -56 25 -72 44 -97 120
-9 29 -32 74 -50 101 -36 54 -70 136 -60 146 8 8 5 12 50 -81 45 -93 134 -188
241 -258 39 -25 80 -57 93 -70 l22 -25 -49 11 c-60 12 -115 -2 -161 -40 -55
-47 -72 -98 -48 -149 14 -32 28 -32 28 0 0 40 24 89 59 118 36 30 95 36 160
17 25 -7 42 -6 60 3 41 19 38 52 -7 101 -22 24 -43 53 -46 64 -16 48 41 102
124 118 39 8 34 25 -11 37 -71 18 -160 -23 -181 -85 -10 -28 -11 -28 -24 -10
-8 11 -37 33 -66 50 -97 54 -149 125 -148 202 l1 25 15 -27 c8 -16 34 -37 57
-49 66 -33 107 -68 138 -117 34 -54 34 -53 13 29 -20 76 -14 150 15 208 26 50
38 52 47 6 4 -24 -2 -61 -21 -124 -20 -65 -25 -97 -20 -118 8 -25 9 -23 16 27
4 30 14 72 23 92 9 21 16 56 16 79 0 41 1 42 19 25 11 -10 27 -15 38 -12 14 4
22 -3 35 -34 23 -55 108 -105 108 -64 0 12 9 8 35 -14 58 -52 153 -53 165 -3
l5 23 19 -21 c29 -31 78 -44 124 -31 45 12 67 33 58 55 -4 11 2 15 25 15 36 0
76 20 107 53 19 20 22 29 13 45 -9 17 -6 22 20 32 16 7 34 22 40 32 17 31 21
14 9 -33 -15 -55 -6 -97 31 -149 38 -52 50 -46 15 7 -32 48 -40 86 -28 138 l8
40 21 -40 c12 -22 28 -80 36 -128 8 -47 22 -93 30 -101 13 -14 16 -10 22 32
12 81 74 200 97 186 6 -4 8 -3 5 3 -4 6 5 21 18 33 l25 23 0 -30 c0 -47 -19
-92 -72 -170 -48 -69 -78 -143 -78 -187 1 -21 1 -21 16 -1 8 11 12 25 9 33 -8
20 17 71 78 160 57 83 76 144 63 197 -4 17 -2 25 7 25 7 0 18 -18 23 -40z
m293 -107 c-12 -49 -28 -104 -36 -125 -14 -36 -14 -36 -43 -20 -25 15 -31 15
-68 0 l-40 -16 48 67 c27 36 63 74 79 84 34 20 54 52 67 107 7 28 9 31 12 13
2 -13 -6 -62 -19 -110z m-19 63 c-12 -26 -25 -46 -28 -47 -4 0 -15 -2 -24 -4
-10 -2 -18 0 -18 4 0 12 82 103 87 97 3 -3 -5 -25 -17 -50z m-193 -78 c-2 -48
-10 -88 -23 -118 -11 -25 -21 -49 -22 -53 -1 -9 -33 -36 -43 -37 -16 -1 24
149 51 193 38 62 38 72 -1 27 l-31 -35 21 42 c17 35 26 44 48 52 1 1 1 -32 0
-71z m-82 -67 c-3 -11 -10 -45 -15 -78 -9 -51 -28 -83 -50 -83 -19 0 1 84 30
130 34 53 45 63 35 31z m-284 -55 c73 -50 74 -118 3 -210 -20 -26 -34 -50 -31
-52 3 -3 29 9 57 27 37 22 69 34 105 37 47 4 55 1 88 -28 21 -18 37 -37 37
-42 0 -6 -12 1 -26 15 -48 48 -110 47 -201 -4 -51 -28 -103 -38 -103 -20 0 5
18 31 40 57 56 68 68 111 44 160 -11 21 -34 49 -53 61 -26 18 -29 23 -15 23
11 0 35 -11 55 -24z m-761 -60 c0 -2 -20 -14 -45 -26 -48 -23 -75 -61 -75
-104 0 -14 19 -48 46 -81 40 -49 45 -59 33 -71 -12 -11 -25 -12 -75 -2 -106
19 -169 -7 -205 -86 -11 -25 -19 -33 -19 -22 0 31 48 93 88 112 28 13 52 15
109 11 48 -4 73 -2 73 5 0 6 -15 28 -34 49 -67 74 -55 162 27 199 39 18 77 26
77 16z m978 -58 c9 3 1 -8 -19 -26 -22 -19 -47 -32 -64 -32 l-27 0 32 36 c17
20 37 48 43 62 l12 27 3 -37 c3 -30 6 -36 20 -30z"/>
<path d="M1237 2604 c-3 -3 -3 -21 0 -40 7 -45 -35 -131 -92 -186 -43 -42 -56
-68 -34 -68 5 0 7 5 3 12 -5 7 -2 9 8 6 8 -4 21 -2 29 4 11 7 9 8 -6 3 -19 -6
-19 -5 2 16 19 20 23 20 43 6 16 -11 18 -16 8 -21 -7 -3 -2 -3 12 0 14 4 39
12 55 20 l30 13 -30 -4 c-24 -4 -20 0 20 18 l49 24 -39 -2 c-60 -4 -61 -5 -46
-14 11 -7 9 -10 -8 -16 -11 -3 -26 -3 -32 1 -8 4 -9 3 -5 -4 4 -7 3 -12 -3
-12 -5 0 -13 4 -16 10 -3 5 21 23 54 40 59 29 109 37 159 24 23 -7 31 -24 10
-24 -6 0 -34 -17 -62 -39 -71 -53 -82 -58 -161 -66 -38 -4 -79 -12 -90 -17
-17 -7 -16 -8 5 -4 14 3 69 6 122 7 89 2 99 0 144 -26 l49 -29 -50 -13 c-74
-19 -119 -16 -186 12 -51 22 -65 24 -97 16 -46 -13 -101 -58 -125 -102 -17
-31 -14 -29 25 13 42 46 44 47 53 25 13 -30 56 -34 79 -8 18 19 18 22 2 46 -9
14 -14 25 -11 25 3 0 33 -14 67 -31 56 -28 67 -31 122 -25 139 16 156 18 156
25 0 23 -100 90 -137 92 -17 0 -17 1 0 12 10 7 41 29 69 50 27 20 60 37 72 37
11 0 56 -14 98 -31 l76 -32 -30 -21 c-40 -27 -72 -71 -63 -85 5 -9 11 -9 22 1
10 8 44 11 104 10 74 -2 98 1 137 19 26 12 62 27 80 34 21 8 29 14 20 17 -8 3
-41 -6 -73 -20 -44 -18 -86 -26 -158 -31 -53 -3 -97 -3 -97 1 0 7 58 58 68 59
62 4 176 2 160 -4 -35 -13 -14 -18 22 -5 30 10 32 12 14 19 -10 4 -49 8 -86 8
-55 1 -87 9 -165 40 l-98 40 45 20 c25 11 57 21 71 21 38 0 120 -26 173 -56
67 -37 57 -22 -16 24 -35 22 -71 48 -81 60 -17 19 -17 20 9 26 14 4 24 9 22
12 -3 2 -17 0 -31 -5 -22 -8 -28 -6 -41 15 -15 22 -15 24 0 24 42 0 100 -27
145 -68 68 -61 83 -93 22 -46 -26 20 -47 41 -46 45 2 5 -5 5 -14 2 -10 -4 -14
-2 -9 5 3 6 1 14 -5 18 -8 5 -9 3 -4 -6 6 -10 4 -12 -8 -7 -9 3 -19 2 -22 -3
-7 -11 26 -29 43 -23 7 3 11 -1 10 -9 -2 -8 4 -12 15 -10 9 2 16 -1 15 -7 -4
-13 62 -62 74 -55 5 3 7 2 6 -3 -5 -14 25 -47 62 -71 20 -12 28 -22 19 -22
-19 0 -49 -31 -49 -50 0 -7 7 -21 15 -30 14 -16 13 -18 -22 -24 -62 -10 -113
-26 -113 -36 0 -5 28 -24 62 -41 76 -38 151 -41 243 -9 l60 20 -45 -5 c-161
-17 -183 -17 -235 8 l-50 24 67 15 c62 15 72 14 145 -3 91 -21 105 -23 78 -6
-11 6 -22 12 -25 12 -3 1 -30 7 -61 14 -56 14 -56 14 -37 33 19 19 20 19 41 1
55 -47 56 -41 3 11 l-58 58 23 24 c19 21 21 27 11 50 -16 33 -65 31 -70 -3 -5
-36 -19 -27 -45 31 -33 71 -87 129 -150 160 -45 23 -127 36 -127 20 0 -12 24
-51 49 -78 l26 -28 -41 7 c-57 9 -110 -3 -146 -33 -29 -25 -30 -25 -60 -7 -45
26 -117 23 -174 -9 -25 -14 -48 -26 -50 -26 -3 0 8 18 23 41 17 27 28 58 31
93 4 48 -6 75 -21 60z m740 -240 c3 -8 1 -20 -6 -27 -14 -14 -47 15 -37 32 10
16 36 13 43 -5z m-18 -88 c15 -18 3 -46 -19 -46 -20 0 -32 23 -24 45 8 19 28
19 43 1z m-860 -60 c9 -11 8 -18 -4 -30 -20 -20 -34 -20 -41 -1 -14 36 21 60
45 31z"/>
<path d="M1192 2494 c-7 -14 -17 -22 -22 -19 -6 4 -7 -1 -3 -11 5 -13 3 -15
-7 -9 -9 6 -11 4 -5 -5 6 -10 4 -12 -8 -7 -12 4 -21 -3 -33 -24 -8 -17 -13
-33 -11 -35 2 -3 10 9 17 26 7 16 16 27 21 24 5 -3 1 -17 -8 -32 -28 -45 2
-11 41 47 32 47 43 71 33 71 -2 0 -9 -12 -15 -26z"/>
<path d="M2015 2444 c-6 -51 -3 -77 12 -124 l19 -60 -32 25 c-18 14 -36 25
-39 25 -7 0 103 -103 115 -108 4 -1 -7 26 -24 60 -25 52 -31 78 -34 148 l-4
85 22 -20 c45 -41 60 -87 60 -191 l0 -96 66 -67 c37 -36 57 -52 46 -36 -11 17
-36 46 -56 64 l-36 35 0 98 c0 108 -13 154 -57 201 -41 42 -51 35 -58 -39z"/>
<path d="M1575 2430 c11 -5 36 -8 55 -8 l35 0 -30 8 c-16 4 -41 8 -55 8 -23 1
-23 0 -5 -8z"/>
<path d="M1775 2385 c50 -21 83 -26 40 -6 -22 11 -47 19 -55 19 -8 0 -1 -5 15
-13z"/>
<path d="M1200 2261 c37 -12 109 -22 85 -12 -11 5 -40 11 -65 15 -30 4 -36 3
-20 -3z"/>
<path d="M2165 2220 c-25 -27 -7 -70 29 -70 46 0 57 58 15 80 -23 13 -23 13
-44 -10z m52 -26 c7 -18 -14 -35 -34 -27 -7 3 -13 14 -13 24 0 24 38 26 47 3z"/>
<path d="M1472 2103 c-7 -3 -18 -16 -23 -30 -7 -20 -14 -24 -32 -19 -60 15
-166 -59 -152 -105 5 -15 1 -19 -17 -19 -48 0 -101 -52 -94 -91 4 -19 -1 -33
-15 -45 -45 -40 -65 -118 -34 -130 12 -5 12 -9 1 -27 -26 -42 -29 -83 -7 -132
12 -27 26 -45 37 -45 13 0 15 6 9 28 -21 86 -13 152 23 189 16 16 16 16 -5 11
-19 -5 -23 -2 -23 15 0 34 49 97 76 97 12 0 26 5 29 10 3 6 -3 10 -14 10 -55
0 -20 65 50 92 42 15 43 17 20 25 -23 9 -22 10 24 41 48 31 123 50 146 36 9
-5 10 -2 5 11 -4 11 -2 22 6 27 22 14 102 9 126 -8 22 -15 23 -15 20 2 -7 40
91 0 131 -54 16 -21 20 -23 21 -9 0 27 14 21 74 -36 51 -48 56 -56 57 -97 0
-40 1 -42 10 -20 l10 25 25 -28 c33 -39 33 -101 -1 -151 -31 -46 -31 -52 -1
-32 17 10 27 12 31 5 11 -18 -4 -75 -25 -94 -26 -23 -25 -35 0 -28 52 14 84
119 40 130 -24 6 -25 11 -3 35 11 13 17 37 17 73 1 43 -4 58 -23 79 -14 14
-30 26 -37 26 -7 0 -15 14 -19 30 -13 61 -93 128 -139 116 -16 -4 -25 2 -38
24 -9 16 -32 39 -50 50 -37 22 -94 27 -100 8 -4 -10 -10 -10 -32 0 -27 12 -80
15 -104 5z"/>
<path d="M1005 2080 c17 -4 44 -8 60 -8 25 0 24 2 -10 9 -51 10 -92 10 -50 -1z"/>
<path d="M1544 1964 c23 -30 39 -65 46 -102 15 -78 18 -83 19 -37 1 58 -14
105 -50 148 -44 53 -57 46 -15 -9z"/>
<path d="M1620 1967 c0 -2 8 -19 17 -38 12 -23 17 -56 17 -104 0 -38 1 -59 4
-47 3 19 8 23 27 18 18 -5 27 -1 35 13 14 27 13 64 -4 86 -18 25 -10 45 20 45
33 0 64 -52 64 -107 0 -50 -9 -80 -20 -63 -5 8 -9 7 -13 -5 -5 -10 -3 -14 4
-9 7 4 10 1 7 -7 -3 -8 -12 -13 -19 -11 -8 2 -11 0 -7 -4 4 -4 3 -13 -3 -21
-17 -20 5 -16 23 5 27 30 48 80 48 111 0 50 -29 110 -61 127 -57 29 -91 -23
-53 -81 12 -18 13 -28 5 -44 -17 -30 -41 -15 -41 25 0 38 -22 98 -39 108 -6 4
-11 5 -11 3z"/>
<path d="M1757 1867 c5 -38 1 -54 -23 -94 -18 -32 -22 -43 -10 -34 40 33 61
123 37 160 -5 8 -7 -4 -4 -32z"/>
<path d="M1426 1860 c12 -4 33 -23 48 -42 14 -18 26 -28 26 -22 0 20 -57 74
-77 73 -16 0 -15 -1 3 -9z"/>
<path d="M1260 1770 c-22 -7 -21 -8 12 -9 20 -1 40 4 43 9 7 12 -19 12 -55 0z"/>
<path d="M1221 1729 c-13 -5 -22 -12 -19 -14 3 -3 17 -1 32 5 39 14 101 12
143 -5 20 -8 38 -13 41 -10 3 2 -11 12 -31 20 -40 17 -129 19 -166 4z"/>
<path d="M1274 1656 c-44 -20 -74 -62 -74 -105 0 -66 51 -83 92 -32 23 29 68
51 68 33 0 -5 -7 -15 -16 -23 -21 -17 -56 -88 -51 -102 2 -7 11 4 19 23 9 19
36 56 62 83 25 26 42 47 38 47 -4 0 -13 -5 -19 -11 -13 -13 -36 -3 -28 12 4 5
16 10 28 10 17 1 18 2 4 6 -25 6 -102 -33 -121 -62 -19 -28 -41 -32 -50 -9
-12 31 -6 54 23 86 25 28 36 32 92 36 45 3 58 7 44 13 -31 12 -77 10 -111 -5z"/>
<path d="M1849 1649 c-14 -11 -47 -27 -75 -35 l-49 -14 44 5 c25 3 49 1 56 -5
19 -16 54 4 50 27 -1 10 2 24 8 31 15 18 -5 13 -34 -9z"/>
<path d="M1305 1621 c-22 -10 -47 -26 -55 -36 -10 -12 -1 -9 26 9 22 14 61 30
85 35 35 7 38 9 14 10 -16 0 -48 -8 -70 -18z"/>
<path d="M1397 1539 c-29 -22 -70 -86 -82 -129 -12 -40 11 -11 24 32 8 23 31
54 58 78 48 42 48 54 0 19z"/>
<path d="M1415 1512 c-57 -48 -100 -158 -77 -198 9 -16 11 -10 12 34 0 60 18
102 63 150 33 35 34 42 2 14z"/>
<path d="M1835 1500 c-22 -24 -55 -25 -98 -5 l-32 16 24 -21 c34 -29 91 -27
121 5 13 14 19 25 13 25 -5 0 -18 -9 -28 -20z"/>
<path d="M1450 1448 c-30 -49 -26 -100 10 -142 37 -42 73 -53 106 -31 28 18
31 51 8 83 -10 14 -12 27 -6 38 7 12 12 6 26 -29 9 -24 29 -55 44 -68 15 -13
21 -17 15 -9 -22 25 -14 34 10 12 13 -12 27 -22 33 -22 5 1 -4 11 -19 24 -16
12 -39 45 -53 72 -14 27 -22 38 -18 24 4 -14 8 -32 11 -40 2 -8 -5 3 -16 25
-11 22 -20 50 -20 62 -1 12 -6 25 -12 29 -9 5 -10 -1 -5 -21 5 -19 2 -33 -11
-47 -16 -18 -16 -21 1 -53 23 -42 15 -65 -21 -65 -52 1 -60 17 -59 108 0 45 0
82 -2 82 -1 0 -11 -15 -22 -32z m12 -70 c3 -26 2 -45 -3 -42 -5 3 -9 26 -9 51
0 58 6 53 12 -9z"/>
<path d="M1497 1449 c-7 -36 0 -96 12 -104 6 -3 4 105 -3 130 -2 6 -6 -6 -9
-26z"/>
<path d="M1630 1467 c0 -14 32 -71 54 -95 27 -31 69 -52 98 -51 17 0 11 5 -19
15 -47 17 -87 53 -114 104 -10 19 -18 31 -19 27z"/>
<path d="M1620 1437 c-1 -20 43 -87 69 -106 43 -31 47 -25 6 11 -20 17 -45 47
-55 67 -11 20 -19 32 -20 28z"/>
<path d="M763 1877 c-7 -14 -8 -39 -4 -58 l7 -34 7 31 c3 18 9 43 13 58 8 32
-9 34 -23 3z"/>
<path d="M2257 1950 c6 -8 16 -33 23 -55 7 -22 16 -44 21 -50 5 -5 3 13 -5 39
-8 27 -23 56 -32 65 -14 13 -16 13 -7 1z"/>
<path d="M2444 1237 c-11 -18 -29 -45 -39 -62 l-19 -30 22 19 c28 24 65 83 60
96 -2 5 -12 -5 -24 -23z"/>
<path d="M876 1690 c5 -8 18 -30 31 -49 13 -19 23 -41 23 -50 0 -8 -12 2 -26
24 -35 53 -53 69 -26 24 12 -20 18 -40 14 -44 -4 -5 -2 -5 4 -2 7 4 15 0 18
-9 3 -8 11 -12 17 -8 8 4 9 -1 5 -17 -6 -20 -5 -21 4 -7 13 20 -13 85 -50 128
-12 14 -18 18 -14 10z"/>
<path d="M2174 1269 c-14 -28 -20 -48 -13 -43 9 5 10 2 6 -9 -3 -10 -4 -17 -2
-17 6 0 55 85 55 96 -1 5 -10 -8 -21 -29 -11 -22 -23 -37 -25 -34 -3 3 4 23
16 46 11 23 18 41 15 41 -2 0 -16 -23 -31 -51z"/>
<path d="M954 1142 c27 -29 25 -47 -2 -20 -7 7 -12 9 -12 6 0 -4 15 -17 33
-29 21 -16 27 -17 18 -6 -17 21 -8 22 24 1 14 -9 22 -20 19 -25 -3 -5 0 -9 5
-9 23 0 8 19 -51 65 -47 37 -56 41 -34 17z"/>
<path d="M1711 941 c-17 -16 -38 -45 -46 -65 -15 -35 -17 -36 -70 -36 -37 0
-57 5 -62 15 -17 29 -77 65 -110 65 -46 0 -83 -37 -83 -83 0 -19 7 -40 15 -47
26 -22 17 -27 -55 -34 -53 -6 -77 -13 -99 -32 -52 -44 -49 -81 10 -131 17 -15
28 -33 26 -46 -2 -16 8 -24 45 -39 l48 -18 14 29 c8 15 31 42 50 59 34 30 147
88 176 91 59 6 170 4 195 -3 l30 -8 -25 -10 c-14 -6 -40 -11 -59 -12 -44 -1
-60 -25 -41 -62 8 -14 21 -28 30 -31 8 -2 22 -8 30 -11 8 -4 33 -7 55 -7 34 0
40 3 43 23 2 12 15 30 28 39 23 15 26 15 48 -6 28 -26 37 -26 88 0 37 19 40
23 25 34 -15 10 -15 14 -2 31 37 49 9 94 -70 115 -89 22 -95 28 -89 68 8 48
-11 118 -36 131 -35 19 -76 11 -109 -19z m105 -12 c15 -16 16 -24 6 -39 -10
-16 -9 -18 3 -14 8 4 15 1 15 -5 0 -6 -9 -11 -20 -11 -21 0 -76 -27 -117 -56
-21 -15 -22 -15 -28 9 -8 31 14 76 55 111 38 31 61 33 86 5z m-361 -42 c70
-41 85 -60 85 -104 l0 -44 -46 32 c-28 19 -64 34 -90 37 -42 4 -43 6 -40 35 6
50 48 70 91 44z m380 -65 c-8 -37 8 -50 99 -82 61 -22 71 -29 74 -51 2 -14 -4
-31 -13 -39 -13 -11 -19 -10 -38 8 -42 40 -132 73 -202 75 -63 2 -65 3 -65 28
0 23 9 30 73 57 39 17 73 31 75 32 2 0 1 -13 -3 -28z m-249 -19 c3 -10 10 -27
15 -38 6 -15 7 -13 2 9 -6 28 7 46 34 46 20 0 38 -76 25 -105 -13 -29 -42 -34
-42 -7 -1 16 -1 16 -14 0 -7 -10 -21 -18 -30 -18 -13 0 -16 11 -16 65 0 62 14
87 26 48z m-98 -51 c28 -14 52 -29 52 -33 0 -3 -22 -9 -49 -12 -62 -7 -142
-41 -198 -84 -24 -19 -48 -31 -53 -28 -13 8 -13 35 0 35 6 0 10 5 10 12 0 6
-7 5 -18 -5 -22 -20 -42 -6 -42 30 0 32 53 63 107 63 62 0 96 16 90 41 -5 18
-2 20 21 14 15 -3 51 -18 80 -33z m398 -76 c38 -20 78 -44 87 -54 16 -18 16
-19 -7 -32 -21 -11 -28 -10 -56 10 -38 27 -33 38 7 15 l28 -17 -25 21 c-14 11
-30 19 -36 17 -6 -3 -37 9 -69 25 -34 17 -74 29 -96 29 -30 0 -39 4 -39 16 0
29 121 11 206 -30z m-341 5 c-2 -5 -17 -11 -32 -14 -40 -8 -146 -79 -172 -115
-20 -28 -24 -30 -51 -20 -39 13 -38 30 3 64 72 61 281 131 252 85z m292 -84
c-14 -12 -27 -31 -29 -42 -2 -11 -8 -18 -13 -15 -12 6 -7 60 7 77 5 7 7 17 3
23 -4 7 7 4 25 -5 l33 -17 -26 -21z m-97 5 c0 -15 -28 -47 -35 -40 -8 8 13 48
25 48 6 0 10 -4 10 -8z"/>
<path d="M1716 880 c-20 -22 -36 -43 -36 -48 0 -4 10 4 21 18 17 21 20 21 14
5 -5 -17 -2 -16 22 6 15 15 37 32 48 38 19 11 18 12 -4 5 -16 -4 -21 -3 -17 5
17 27 -15 8 -48 -29z"/>
<path d="M1455 860 c6 -9 -1 -11 -26 -6 -32 6 -31 5 11 -14 24 -12 50 -25 56
-31 9 -7 12 -6 10 3 -3 21 -15 37 -38 49 -16 8 -19 8 -13 -1z"/>
<path d="M1380 720 c-25 -4 -39 -8 -31 -8 11 -2 10 -6 -5 -17 -23 -17 -11 -20
19 -3 12 6 47 17 77 24 44 10 48 12 20 11 -19 0 -55 -3 -80 -7z"/>
<path d="M1440 600 c-13 -9 -13 -11 0 -20 19 -13 33 -13 25 0 -3 6 1 10 9 10
40 0 14 -52 -29 -58 -20 -3 -20 -2 -1 13 17 13 17 15 4 15 -23 0 -33 -19 -29
-55 5 -44 36 -59 65 -30 8 8 21 15 28 15 17 0 58 44 58 61 0 25 -17 41 -46 44
-16 2 -38 6 -49 9 -11 4 -27 2 -35 -4z m80 -74 c0 -21 -21 -31 -30 -15 -5 7
-6 17 -4 21 9 14 34 9 34 -6z m-52 -29 c2 -10 -3 -17 -12 -17 -10 0 -16 9 -16
21 0 24 23 21 28 -4z"/>
</g>
</svg>
